<svg width="45" height="41" viewBox="0 0 45 41" fill="none" xmlns="http://www.w3.org/2000/svg">
<rect width="45" height="41" fill="black" fill-opacity="0.2"/>
<path d="M21.6601 22.0198L21.661 22.0207C22.1125 22.486 22.5638 22.9254 22.9993 23.3324C23.4363 22.9243 23.8882 22.4847 24.3398 22.0198H21.6601ZM21.6601 22.0198C20.1835 20.498 19.1604 19.1644 18.5084 18.0804L21.6601 22.0198ZM17.2936 14.4367L17.2938 14.4369L17.2936 14.4367ZM17.6117 14.7956C17.6187 14.7775 17.6258 14.7602 17.6329 14.7437L17.6117 14.7956ZM28.3934 14.8005C28.4617 14.9792 28.5006 15.1741 28.5 15.4031L28.5 15.4139V15.4247C28.5 15.5904 28.4694 15.915 28.3009 16.4071L28.2978 16.416L28.2947 16.425C28.1591 16.8239 27.91 17.383 27.4921 18.0794L28.3934 14.8005ZM17.5 15.4247C17.5 15.1793 17.5422 14.9761 17.6114 14.7962L18.5074 18.0786C18.099 17.3979 17.845 16.8315 17.6986 16.4055C17.5305 15.9143 17.5 15.5902 17.5 15.4247ZM27.4915 18.0804C26.84 19.1638 25.8175 20.4966 24.3421 22.0174L27.4915 18.0804Z" fill="white" stroke="white" stroke-width="17"/>
</svg>
